HIERARCHY
ROOT Hips
{
	OFFSET 0.00000 0.00000 0.00000
	CHANNELS 6 Xposition Yposition Zposition Zrotation Yrotation Xrotation 
	JOINT LHipJoint
	{
		OFFSET 0 0 0
		CHANNELS 3 Zrotation Yrotation Xrotation
		JOINT LeftUpLeg
		{
			OFFSET 1.34019 -1.87553 0.90315
			CHANNELS 3 Zrotation Yrotation Xrotation
			JOINT LeftLeg
			{
				OFFSET 2.55316 -7.01474 0.00000
				CHANNELS 3 Zrotation Yrotation Xrotation
				JOINT LeftFoot
				{
					OFFSET 2.64657 -7.27139 0.00000
					CHANNELS 3 Zrotation Yrotation Xrotation
					JOINT LeftToeBase
					{
						OFFSET 0.24207 -0.66507 2.14489
						CHANNELS 3 Zrotation Yrotation Xrotation
						End Site
						{
							OFFSET 0.00000 -0.00000 1.12451
						}
					}
				}
			}
		}
	}
	JOINT RHipJoint
	{
		OFFSET 0 0 0
		CHANNELS 3 Zrotation Yrotation Xrotation
		JOINT RightUpLeg
		{
			OFFSET -1.28320 -1.87553 0.90315
			CHANNELS 3 Zrotation Yrotation Xrotation
			JOINT RightLeg
			{
				OFFSET -2.60484 -7.15674 0.00000
				CHANNELS 3 Zrotation Yrotation Xrotation
				JOINT RightFoot
				{
					OFFSET -2.60296 -7.15159 0.00000
					CHANNELS 3 Zrotation Yrotation Xrotation
					JOINT RightToeBase
					{
						OFFSET -0.31082 -0.85398 2.28998
						CHANNELS 3 Zrotation Yrotation Xrotation
						End Site
						{
							OFFSET -0.00000 -0.00000 1.21611
						}
					}
				}
			}
		}
	}
	JOINT LowerBack
	{
		OFFSET 0 0 0
		CHANNELS 3 Zrotation Yrotation Xrotation
		JOINT Spine
		{
			OFFSET -0.00160 2.05581 -0.15156
			CHANNELS 3 Zrotation Yrotation Xrotation
			JOINT Spine1
			{
				OFFSET 0.04594 2.06326 -0.01617
				CHANNELS 3 Zrotation Yrotation Xrotation
				JOINT Neck
				{
					OFFSET 0 0 0
					CHANNELS 3 Zrotation Yrotation Xrotation
					JOINT Neck1
					{
						OFFSET 0.03753 1.73883 0.26751
						CHANNELS 3 Zrotation Yrotation Xrotation
						JOINT Head
						{
							OFFSET -0.09795 1.76129 -0.31794
							CHANNELS 3 Zrotation Yrotation Xrotation
							End Site
							{
								OFFSET -0.03611 1.79987 -0.13846
							}
						}
					}
				}
				JOINT LeftShoulder
				{
					OFFSET 0 0 0
					CHANNELS 3 Zrotation Yrotation Xrotation
					JOINT LeftArm
					{
						OFFSET 3.30667 1.29205 -0.22445
						CHANNELS 3 Zrotation Yrotation Xrotation
						JOINT LeftForeArm
						{
							OFFSET 4.92785 -0.00000 -0.00000
							CHANNELS 3 Zrotation Yrotation Xrotation
							JOINT LeftHand
							{
								OFFSET 3.44052 -0.00000 0.00000
								CHANNELS 3 Zrotation Yrotation Xrotation
								JOINT LeftFingerBase
								{
									OFFSET 0 0 0
									CHANNELS 3 Zrotation Yrotation Xrotation
									JOINT LeftHandIndex1
									{
										OFFSET 0.65433 -0.00000 0.00000
										CHANNELS 3 Zrotation Yrotation Xrotation
										End Site
										{
											OFFSET 0.52753 -0.00000 0.00000
										}
									}
								}
								JOINT LThumb
								{
									OFFSET 0 0 0
									CHANNELS 3 Zrotation Yrotation Xrotation
									End Site
									{
										OFFSET 0.53559 -0.00000 0.53559
									}
								}
							}
						}
					}
				}
				JOINT RightShoulder
				{
					OFFSET 0 0 0
					CHANNELS 3 Zrotation Yrotation Xrotation
					JOINT RightArm
					{
						OFFSET -3.20032 1.49783 -0.27688
						CHANNELS 3 Zrotation Yrotation Xrotation
						JOINT RightForeArm
						{
							OFFSET -5.09181 -0.00000 -0.00000
							CHANNELS 3 Zrotation Yrotation Xrotation
							JOINT RightHand
							{
								OFFSET -3.49865 -0.00000 -0.00000
								CHANNELS 3 Zrotation Yrotation Xrotation
								JOINT RightFingerBase
								{
									OFFSET 0 0 0
									CHANNELS 3 Zrotation Yrotation Xrotation
									JOINT RightHandIndex1
									{
										OFFSET -0.66641 -0.00000 0.00000
										CHANNELS 3 Zrotation Yrotation Xrotation
										End Site
										{
											OFFSET -0.53728 -0.00000 0.00000
										}
									}
								}
								JOINT RThumb
								{
									OFFSET 0 0 0
									CHANNELS 3 Zrotation Yrotation Xrotation
									End Site
									{
										OFFSET -0.54548 -0.00000 0.54548
									}
								}
							}
						}
					}
				}
			}
		}
	}
}
MOTION
Frames: 8
Frame Time: .0083333
0.6303 18.3080 5.6954 -1.3204 3.7015 1.8845 0.0000 0.0000 0.0000 0.0000 0.0000 0.0000 0.0000 0.0000 0.0000 0.0000 0.0000 0.0000 0.0000 0.0000 0.0000 0.0000 0.0000 0.0000 14.5181 0.6640 0.4466 -0.6052 -4.9795 13.8501 1.4671 -21.5734 -14.2904 -0.0694 1.6991 -4.6747 -0.8097 -0.3874 2.0824 1.7713 -0.5096 -0.5060 2.2893 -0.2375 -1.6630 4.1842 0.4826 -22.7353 -4.7820 0.3383 16.9364 -2.2896 -0.1146 9.0639 -0.0000 -0.0000 0.0000 -24.8908 9.0390 -27.6968 11.1867 -18.5739 -1.8349 -0.0000 -0.0000 9.6094 13.9460 4.2329 1.0501 -7.1250 0.0000 -0.0000 -10.4240 34.1959 2.8025 -0.0000 -0.0000 0.0000 19.5493 -10.2695 -32.0788 -11.3530 18.8273 -1.8883 0.0000 0.0000 5.7937 -12.0424 -10.7764 2.2842 7.1250 -0.0000 -0.0000 13.2350 -40.6340 1.4538
0.6300 18.3083 5.6949 -1.3025 3.7233 1.8938 0.0000 0.0000 0.0000 0.0000 0.0000 0.0000 0.0000 0.0000 0.0000 0.0000 0.0000 0.0000 0.0000 0.0000 0.0000 0.0000 0.0000 0.0000 14.4961 0.6402 0.4269 -0.6060 -4.9829 13.8598 1.4657 -21.5642 -14.2853 -0.0699 1.7059 -4.6935 -0.8225 -0.3932 2.0813 1.7672 -0.5178 -0.5021 2.2925 -0.2416 -1.6579 4.2224 0.4925 -22.7001 -4.8201 0.3466 16.8544 -2.3064 -0.1123 9.0299 -0.0000 0.0000 0.0000 -24.8886 9.0311 -27.7714 11.1736 -18.5538 -1.8308 -0.0000 -0.0000 9.7141 13.9127 4.1717 1.0324 -7.1250 0.0000 -0.0000 -10.4424 34.1325 2.8239 -0.0000 0.0000 0.0000 19.5289 -10.2549 -32.1626 -11.3328 18.7966 -1.8818 0.0000 0.0000 5.9482 -12.0014 -10.6299 2.2456 7.1250 -0.0000 -0.0000 13.2357 -40.4853 1.5034
0.6298 18.3087 5.6943 -1.2784 3.7466 1.9068 0.0000 0.0000 0.0000 0.0000 0.0000 0.0000 0.0000 0.0000 0.0000 0.0000 0.0000 0.0000 0.0000 0.0000 0.0000 0.0000 0.0000 0.0000 14.4668 0.6153 0.4010 -0.6071 -4.9875 13.8729 1.4640 -21.5531 -14.2806 -0.0705 1.7135 -4.7147 -0.8405 -0.3995 2.0785 1.7605 -0.5268 -0.4988 2.2961 -0.2460 -1.6525 4.2613 0.5031 -22.6690 -4.8563 0.3553 16.7785 -2.3227 -0.1096 8.9989 0.0000 0.0000 0.0000 -24.8834 9.0206 -27.8508 11.1606 -18.5340 -1.8266 -0.0000 -0.0000 9.8193 13.8728 4.1098 1.0140 -7.1250 0.0000 -0.0000 -10.4660 34.0681 2.8471 0.0000 0.0000 0.0000 19.5116 -10.2407 -32.2657 -11.3096 18.7613 -1.8743 0.0000 0.0000 6.1248 -11.9649 -10.4813 2.2077 7.1250 -0.0000 -0.0000 13.2324 -40.3348 1.5531
0.6294 18.3092 5.6938 -1.2539 3.7715 1.9211 0.0000 0.0000 0.0000 0.0000 0.0000 0.0000 0.0000 0.0000 0.0000 0.0000 0.0000 0.0000 0.0000 0.0000 0.0000 0.0000 0.0000 0.0000 14.4380 0.5921 0.3736 -0.6084 -4.9927 13.8877 1.4627 -21.5446 -14.2757 -0.0712 1.7213 -4.7360 -0.8598 -0.4062 2.0745 1.7533 -0.5365 -0.4948 2.2998 -0.2508 -1.6456 4.3044 0.5169 -22.6439 -4.8931 0.3670 16.7091 -2.3396 -0.1053 8.9713 -0.0000 0.0000 0.0000 -24.8761 9.0034 -27.9379 11.1478 -18.5145 -1.8226 -0.0000 -0.0000 9.9208 13.8345 4.0659 1.0003 -7.1250 0.0000 -0.0000 -10.4909 34.0222 2.8659 -0.0000 0.0000 0.0000 19.4987 -10.2356 -32.3425 -11.2920 18.7345 -1.8686 0.0000 0.0000 6.2701 -11.9382 -10.3478 2.1749 7.1250 -0.0000 -0.0000 13.2245 -40.2001 1.5969
0.6288 18.3096 5.6934 -1.2303 3.7952 1.9350 0.0000 0.0000 0.0000 0.0000 0.0000 0.0000 0.0000 0.0000 0.0000 0.0000 0.0000 0.0000 0.0000 0.0000 0.0000 0.0000 0.0000 0.0000 14.4117 0.5744 0.3491 -0.6097 -4.9978 13.9022 1.4619 -21.5401 -14.2766 -0.0718 1.7281 -4.7548 -0.8800 -0.4119 2.0701 1.7463 -0.5447 -0.4912 2.3041 -0.2548 -1.6389 4.3401 0.5289 -22.6271 -4.9226 0.3772 16.6526 -2.3533 -0.1014 8.9495 0.0000 -0.0000 0.0000 -24.8661 8.9911 -27.9765 11.1409 -18.5039 -1.8204 -0.0000 -0.0000 9.9588 13.8139 4.0598 0.9973 -7.1250 0.0000 -0.0000 -10.5067 34.0151 2.8722 0.0000 -0.0000 0.0000 19.4889 -10.2355 -32.4263 -11.2765 18.7108 -1.8636 0.0000 0.0000 6.4231 -11.9013 -10.2310 2.1438 7.1250 -0.0000 -0.0000 13.2292 -40.0813 1.6370
0.6280 18.3100 5.6934 -1.2120 3.8145 1.9460 0.0000 0.0000 0.0000 0.0000 0.0000 0.0000 0.0000 0.0000 0.0000 0.0000 0.0000 0.0000 0.0000 0.0000 0.0000 0.0000 0.0000 0.0000 14.3930 0.5634 0.3315 -0.6107 -5.0018 13.9138 1.4616 -21.5399 -14.2821 -0.0720 1.7309 -4.7627 -0.8969 -0.4153 2.0675 1.7408 -0.5499 -0.4892 2.3081 -0.2573 -1.6350 4.3701 0.5402 -22.6062 -4.9487 0.3879 16.6013 -2.3648 -0.0973 8.9288 0.0000 0.0000 0.0000 -24.8545 8.9861 -27.9684 11.1393 -18.5014 -1.8199 -0.0000 -0.0000 9.9429 13.8116 4.0832 1.0029 -7.1250 0.0000 -0.0000 -10.5120 34.0388 2.8675 0.0000 0.0000 0.0000 19.4822 -10.2421 -32.4873 -11.2701 18.7010 -1.8616 0.0000 0.0000 6.5462 -11.8665 -10.1635 2.1234 7.1250 -0.0000 -0.0000 13.2434 -40.0115 1.6621
0.6272 18.3103 5.6936 -1.1985 3.8317 1.9546 0.0000 0.0000 0.0000 0.0000 0.0000 0.0000 0.0000 0.0000 0.0000 0.0000 0.0000 0.0000 0.0000 0.0000 0.0000 0.0000 0.0000 0.0000 14.3800 0.5533 0.3190 -0.6114 -5.0046 13.9218 1.4614 -21.5405 -14.2919 -0.0720 1.7311 -4.7630 -0.9112 -0.4196 2.0676 1.7361 -0.5561 -0.4829 2.3115 -0.2604 -1.6282 4.4118 0.5584 -22.6013 -4.9829 0.4052 16.5459 -2.3802 -0.0903 8.9099 0.0000 0.0000 0.0000 -24.8424 8.9797 -27.9764 11.1361 -18.4965 -1.8189 -0.0000 -0.0000 9.9349 13.8232 4.1192 1.0126 -7.1250 0.0000 -0.0000 -10.5076 34.0757 2.8567 0.0000 0.0000 0.0000 19.4802 -10.2378 -32.5485 -11.2687 18.6990 -1.8612 0.0000 0.0000 6.6485 -11.8325 -10.1422 2.1128 7.1250 -0.0000 -0.0000 13.2676 -39.9875 1.6733
0.6263 18.3106 5.6939 -1.1934 3.8431 1.9604 0.0000 0.0000 0.0000 0.0000 0.0000 0.0000 0.0000 0.0000 0.0000 0.0000 0.0000 0.0000 0.0000 0.0000 0.0000 0.0000 0.0000 0.0000 14.3777 0.5505 0.3133 -0.6117 -5.0059 13.9253 1.4616 -21.5444 -14.3044 -0.0718 1.7283 -4.7555 -0.9195 -0.4227 2.0710 1.7337 -0.5606 -0.4745 2.3138 -0.2627 -1.6213 4.4491 0.5779 -22.6033 -5.0136 0.4246 16.4915 -2.3934 -0.0823 8.8927 0.0000 0.0000 0.0000 -24.8280 8.9734 -27.9879 11.1314 -18.4893 -1.8174 -0.0000 -0.0000 9.9293 13.8443 4.1461 1.0208 -7.1250 0.0000 -0.0000 -10.4943 34.1037 2.8458 0.0000 0.0000 0.0000 19.4773 -10.2260 -32.6063 -11.2701 18.7010 -1.8616 0.0000 0.0000 6.7393 -11.7958 -10.1756 2.1129 7.1250 -0.0000 -0.0000 13.3066 -40.0176 1.6683
